<?xml version="1.0" encoding="UTF-8" standalone="no"?>
<svg
   xmlns:dc="http://purl.org/dc/elements/1.1/"
   xmlns:cc="http://creativecommons.org/ns#"
   xmlns:rdf="http://www.w3.org/1999/02/22-rdf-syntax-ns#"
   xmlns:svg="http://www.w3.org/2000/svg"
   xmlns="http://www.w3.org/2000/svg"
   xmlns:sodipodi="http://sodipodi.sourceforge.net/DTD/sodipodi-0.dtd"
   xmlns:inkscape="http://www.inkscape.org/namespaces/inkscape"
   version="1.1"
   id="svg3687"
   viewBox="0 0 1500 100"
   height="100"
   width="1500"
   inkscape:version="0.91 r13725"
   sodipodi:docname="logo-joy2.svg">
  <sodipodi:namedview
     pagecolor="#ffffff"
     bordercolor="#666666"
     borderopacity="1"
     objecttolerance="10"
     gridtolerance="10"
     guidetolerance="10"
     inkscape:pageopacity="0"
     inkscape:pageshadow="2"
     inkscape:window-width="1366"
     inkscape:window-height="702"
     id="namedview66"
     showgrid="false"
     inkscape:zoom="0.45846154"
     inkscape:cx="621.06141"
     inkscape:cy="-73.912204"
     inkscape:window-x="0"
     inkscape:window-y="27"
     inkscape:window-maximized="1"
     inkscape:current-layer="svg3687" />
  <defs
     id="defs3689" />
  <metadata
     id="metadata3692">
    <rdf:RDF>
      <cc:Work
         rdf:about="">
        <dc:format>image/svg+xml</dc:format>
        <dc:type
           rdf:resource="http://purl.org/dc/dcmitype/StillImage" />
        <dc:title></dc:title>
      </cc:Work>
    </rdf:RDF>
  </metadata>
  <g
     style="font-style:normal;font-weight:normal;font-size:72px;line-height:125%;font-family:Sans;letter-spacing:0px;word-spacing:0px;fill:#000000;fill-opacity:1;stroke:none;stroke-width:1px;stroke-linecap:butt;stroke-linejoin:miter;stroke-opacity:1"
     id="flowRoot3757" />
  <g
     style="font-style:normal;font-weight:normal;font-size:72px;line-height:5.0000146%;font-family:Sans;letter-spacing:0px;word-spacing:0px;fill:#000000;fill-opacity:1;stroke:none;stroke-width:1px;stroke-linecap:butt;stroke-linejoin:miter;stroke-opacity:1"
     id="text3765"
     transform="translate(0,-952.36216)" />
  <g
     style="font-style:normal;font-variant:normal;font-weight:normal;font-stretch:normal;font-size:72px;line-height:200%;font-family:'DejaVu Sans';-inkscape-font-specification:'DejaVu Sans';letter-spacing:0px;word-spacing:0px;fill:#000000;fill-opacity:1;stroke:none;stroke-width:1px;stroke-linecap:butt;stroke-linejoin:miter;stroke-opacity:1"
     id="flowRoot3789" />
  <g
     id="g4783"
     transform="matrix(0.18879823,0,0,0.10987145,452.06727,143.36333)">
    <path
       inkscape:connector-curvature="0"
       style="opacity:0;fill:#fcfcfc;fill-opacity:0"
       d="m -2418.3358,-54.742886 0,-1178.000014 1234.5,0 1234.499986,0 0,1178.000014 0,1177.999986 -1234.499986,0 -1234.5,0 0,-1177.999986 z"
       id="path4763" />
    <g
       id="g4780">
      <path
         inkscape:connector-curvature="0"
         id="path4761"
         d="m -1340.8358,1122.0953 c -96.4361,-6.2803 -204.8814,-47.3617 -286,-108.343 -23.3949,-17.58719 -33.4269,-26.32809 -55.6025,-48.44619 -39.3146,-39.2128 -65.1101,-74.4955 -88.2032,-120.6433 -22.846,-45.6541 -38.649,-99.8043 -42.788,-146.6167 -1.5274,-17.2741 -0.6332,-72.8532 1.525,-94.789 4.519,-45.9317 12.3893,-92.0002 23.4904,-137.5 2.147,-8.8 3.7878,-16.1176 3.6463,-16.2613 -0.1416,-0.1438 -6.5148,0.1898 -14.1627,0.7412 -39.038,2.8146 -114.2935,0.2995 -166.4053,-5.5614 -101.2329,-11.3855 -163.3818,-27.7963 -224.5,-59.2805 -119.1008,-61.3531 -199.363,-172.7957 -223.0048,-309.637996 -7.1789,-41.5527 -7.1687,-121.6205 0.021,-162.5 18.0984,-102.908004 62.9291,-190.585404 133.4561,-261.006004 53.12,-53.0398 119.9047,-93.7692 187.0279,-114.061 56.491,-17.0775 132.5332,-31.0278 201.1475,-36.9013 12.1225,-1.0377 22.2327,-2.0786 22.4672,-2.3131 0.2345,-0.2344 -1.6703,-5.3295 -4.2328,-11.3224 -26.8159,-62.71363 -51.3785,-162.8623 -60.5542,-246.8962 -1.7467,-15.9964 -1.7472,-68.2057 -9e-4,-84 10.3486,-93.5974 49.0443,-173.55931 116.631,-241.00981 75.3437,-75.1916 176.5081,-124.5088 293.5001,-143.0799 42.9551,-6.8186 130.1342,-7.0385 172.3701,-0.4348 78.1653,12.2215 151.9749,41.243 211.5713,83.1886 28.4835,20.0475 64.1801,52.0484 82.9207,74.3359 41.8292,49.746 92.42209,136.87981 123.56729,212.81441 l 1.5645,3.8144 9.4084,-8.3766 c 32.425,-28.869 106.3542,-75.6312 169.3751,-107.1341 92.2553,-46.11671 153.4167,-64.13121 229.6888,-67.65251 63.4576,-2.9296 125.5082,7.3914 184.3474,30.6629 140.3951,55.52781 252.996596,180.28211 295.603996,327.50791 30.263,104.57076 23.7938,208.2508 -19.0222,304.8636 -23.9656,54.0775 -52.195596,91.9104 -116.813496,156.5497 -30.1289,30.1388 -48.5335,46.9382 -75.5398,68.951 -7.975,6.5004 -14.5,12.1742 -14.5,12.6083 0,0.4342 6.1768,4.5923 13.7261,9.2403 68.0487,41.896404 162.978296,122.9622039 210.374196,179.650704 43.7249996,52.297696 73.6473,111.972196 86.8708,173.247396 6.6452,30.7929 6.8775,33.5094 6.9055,80.7526 0.021,36.3413 -0.2622,45.4503 -1.7241,55.3513 -12.5575,85.0511 -48.7476004,163.5411 -108.664,235.6733 -13.2184,15.9134 -48.787696,51.4724 -64.932996,64.9142 -35.0374,29.1703 -67.2578,50.1669 -108.0555,70.4148 -57.5867,28.5802 -111.4421,44.1717 -179,51.8214 -17.8852,2.0252 -79.5051,1.6908 -98.5,-0.5345 -36.544,-4.2813 -61.3511,-9.5996 -92.5,-19.8306 -59.5541,-19.5608 -127.6549,-50.2321 -184.1202,-82.9241 -7.4911,-4.3372 -14.1112,-7.8858 -14.7114,-7.8858 -1.0229,0 -1.5493,1.5243 -4.231,12.25 -16.879,67.5099 -73.8982,189.6783 -117.5304,251.8186 -27.219,38.765 -66.1614,77.97419 -104.90759,105.62659 -62.6371,44.7029 -144.555,73.3813 -223.4994,78.2444 -19.844,1.2225 -68.0288,1.1666 -87.5,-0.1014 z"
         style="fill:#e7d333" />
    </g>
    <path
       inkscape:connector-curvature="0"
       style="fill:#a2a1a0"
       d="m -1340.8358,1122.0953 c -96.4361,-6.2803 -204.8814,-47.3617 -286,-108.343 -23.3949,-17.58719 -33.4269,-26.32809 -55.6025,-48.44619 -39.3146,-39.2128 -65.1101,-74.4955 -88.2032,-120.6433 -22.846,-45.6541 -38.649,-99.8043 -42.788,-146.6167 -1.5274,-17.2741 -0.6332,-72.8532 1.525,-94.789 4.519,-45.9317 12.3893,-92.0002 23.4904,-137.5 2.147,-8.8 3.7878,-16.1176 3.6463,-16.2613 -0.1416,-0.1438 -6.5148,0.1898 -14.1627,0.7412 -39.038,2.8146 -114.2935,0.2995 -166.4053,-5.5614 -101.2329,-11.3855 -163.3818,-27.7963 -224.5,-59.2805 -119.1008,-61.3531 -199.363,-172.7957 -223.0048,-309.637996 -7.1789,-41.5527 -7.1687,-121.6205 0.021,-162.5 18.0984,-102.908004 62.9291,-190.585404 133.4561,-261.006004 53.12,-53.0398 119.9047,-93.7692 187.0279,-114.061 56.491,-17.0775 132.5332,-31.0278 201.1475,-36.9013 12.1225,-1.0377 22.2327,-2.0786 22.4672,-2.3131 0.2345,-0.2344 -1.6703,-5.3295 -4.2328,-11.3224 -26.8159,-62.71363 -51.3785,-162.8623 -60.5542,-246.8962 -1.7467,-15.9964 -1.7472,-68.2057 -9e-4,-84 10.3486,-93.5974 49.0443,-173.55931 116.631,-241.00981 75.3437,-75.1916 176.5081,-124.5088 293.5001,-143.0799 42.9551,-6.8186 130.1342,-7.0385 172.3701,-0.4348 78.1653,12.2215 151.9749,41.243 211.5713,83.1886 28.4835,20.0475 64.1801,52.0484 82.9207,74.3359 41.8292,49.746 92.42209,136.87981 123.56729,212.81441 l 1.5645,3.8144 9.4084,-8.3766 c 32.425,-28.869 106.3542,-75.6312 169.3751,-107.1341 92.2553,-46.11671 153.4167,-64.13121 229.6888,-67.65251 63.4576,-2.9296 125.5082,7.3914 184.3474,30.6629 140.3951,55.52781 252.996596,180.28211 295.603996,327.50791 30.263,104.57076 23.7938,208.2508 -19.0222,304.8636 -23.9656,54.0775 -52.195596,91.9104 -116.813496,156.5497 -30.1289,30.1388 -48.5335,46.9382 -75.5398,68.951 -7.975,6.5004 -14.5,12.1742 -14.5,12.6083 0,0.4342 6.1768,4.5923 13.7261,9.2403 68.0487,41.896404 162.978296,122.9622039 210.374196,179.650704 43.7249996,52.297696 73.6473,111.972196 86.8708,173.247396 6.6452,30.7929 6.8775,33.5094 6.9055,80.7526 0.021,36.3413 -0.2622,45.4503 -1.7241,55.3513 -12.5575,85.0511 -48.7476004,163.5411 -108.664,235.6733 -13.2184,15.9134 -48.787696,51.4724 -64.932996,64.9142 -35.0374,29.1703 -67.2578,50.1669 -108.0555,70.4148 -57.5867,28.5802 -111.4421,44.1717 -179,51.8214 -17.8852,2.0252 -79.5051,1.6908 -98.5,-0.5345 -36.544,-4.2813 -61.3511,-9.5996 -92.5,-19.8306 -59.5541,-19.5608 -127.6549,-50.2321 -184.1202,-82.9241 -7.4911,-4.3372 -14.1112,-7.8858 -14.7114,-7.8858 -1.0229,0 -1.5493,1.5243 -4.231,12.25 -16.879,67.5099 -73.8982,189.6783 -117.5304,251.8186 -27.219,38.765 -66.1614,77.97419 -104.90759,105.62659 -62.6371,44.7029 -144.555,73.3813 -223.4994,78.2444 -19.844,1.2225 -68.0288,1.1666 -87.5,-0.1014 z m -715,-1174.374786 c 48.8635,-10.9498 100.4037,-18.1679 165.5,-23.178 28.9317,-2.2267 148.1654,-2.5452 179,-0.4782 45.3926,3.0429 89.4488,7.5806 124,12.7718 9.075,1.3635 21.5578,3.2357 27.7396,4.1605 8.0992,1.2116 11.5435,1.3773 12.3276,0.5933 0.5984,-0.5984 1.1656,-3.2653 1.2604,-5.9264 l 0.1724,-4.8383 -7,-1.2956 c -12.1307,-2.2453 -61.2475,-9.1323 -80.0009,-11.2176 -48.2043,-5.3599 -88.3193,-7.7952 -142.9991,-8.6812 -102.8273,-1.6659 -199.859,7.2643 -284.5,26.1836 -20.0385,4.4791 -20.1213,4.5162 -19.3592,8.6626 1.0306,5.6071 3.1152,8.059 6.19,7.2806 1.468,-0.3716 9.4192,-2.1883 17.6692,-4.0371 z"
       id="path4759" />
    <path
       inkscape:connector-curvature="0"
       style="fill:#f130ad"
       d="m -1328.8358,1122.316 c -48.8073,-4.7415 -84.8482,-11.4753 -123.7972,-23.1299 -62.4712,-18.6932 -123.1222,-49.1705 -174.7028,-87.7886 -37.2097,-27.85879 -74.488,-65.07929 -100.7966,-100.64039 -50.6388,-68.4479 -81.0309,-151.105 -84.7525,-230.5 -0.7448,-15.8908 0.732,-53.1416 3.1319,-79 3.984,-42.9255 11.9761,-89.708 22.7924,-133.417 2.4386,-9.8544 4.199,-18.5291 3.9119,-19.2771 -0.4181,-1.0897 -2.3372,-1.2056 -9.6545,-0.583 -14.3369,1.2199 -104.0824,0.7744 -122.6326,-0.6088 -51.7705,-3.8601 -106.1693,-11.0649 -148,-19.6016 -74.7106,-15.2468 -141.2709,-45.6922 -197,-90.1098 -25.13,-20.0293 -56.7256,-53.5515 -76.7244,-81.4027 -39.6891,-55.2728 -66.8405,-125.1199 -76.1905,-195.999996 -1.1245,-8.525 -2.6075,-19.1 -3.2955,-23.5 -1.7087,-10.9272 -1.7457,-73.2417 -0.05,-83.5 0.682,-4.125 1.9459,-13.35 2.8087,-20.5 4.5551,-37.748104 15.2915,-79.897404 29.9299,-117.500004 22.859,-58.7192 56.7944,-111.6204 100.0114,-155.9057 40.1117,-41.103 79.441,-69.7197 130.01,-94.5973 31.424,-15.4592 50.6517,-22.412 90,-32.5443 56.3348,-14.5065 115.534,-24.3657 177,-29.4784 10.45,-0.8692 19.4094,-1.9884 19.9098,-2.4872 0.546,-0.5441 -0.9307,-5.2226 -3.692,-11.6969 -29.1899,-68.44295 -56.1663,-181.4145 -61.7963,-258.7902 -1.4657,-20.143 -0.6588,-62.6369 1.5096,-79.5 6.1114,-47.5275 18.7252,-89.3692 39.0687,-129.597 66.4935,-131.48551 211.7406,-225.84071 381.5356,-247.85261 10.7055,-1.3879 23.0646,-3.0009 27.4646,-3.5844 12.2943,-1.6307 61.9513,-2.3099 79,-1.0806 118.3426,8.533 218.8702,47.7141 300,116.9264 13.9679,11.9161 41.5578,39.8431 50.5702,51.1882 40.0553,50.4227 83.96879,125.57431 112.74689,192.94961 4.3342,10.1473 8.3463,18.6049 8.9158,18.7947 0.5695,0.1898 4.9831,-3.3122 9.8081,-7.7822 22.4047,-20.7568 75.8441,-56.44 129.459,-86.444 32.6191,-18.2544 89.6955,-45.4779 119.4952,-56.99521 148.2745,-57.3068 305.5379,-37.9076 434.7198,53.62481 30.0642,21.3022 72.1094,60.185 94.9973,87.8523 61.525996,74.3738 100.155996,160.0853 112.674496,250.00001 6.2128,44.6233 5.288,96.45259 -2.4803,138.99999 -10.0142,54.8485 -33.1179,112.7076 -62.6916,157 -31.573896,47.2882 -99.479796,117.6058 -163.163896,168.9588 -6.903,5.5665 -12.551,10.6794 -12.551,11.3621 0,0.6826 4.1277,3.6848 9.1727,6.6716 35.4674,20.9971 92.1265,63.624504 134.8273,101.437204 18.3126,16.2162 64.041596,61.5532 75.657996,75.0094 51.74559958,59.940796 83.7535,126.385596 95.7922,198.853296 4.6835,28.1929 6.7851,66.1021 4.696,84.7076 -0.5867,5.225 -1.7796,16.025 -2.651,24 -8.8833,81.3013 -47.8334004,168.8538 -106.2547,238.8405 -81.941796,98.1635 -195.675596,164.2348 -317.740496,184.5847 -32.2037,5.3688 -41.3513,6.0359 -82.5,6.0165 -41.1149,-0.02 -49.3932,-0.6274 -82,-6.0221 -27.7677,-4.594 -48.8135,-10.3065 -81.453,-22.1087 -57.4686,-20.7803 -112.3687,-46.2743 -164.7945,-76.5257 -7.5611,-4.3631 -14.4941,-7.7871 -15.4065,-7.609 -1.201,0.2344 -2.4477,3.3613 -4.5148,11.3238 -19.832,76.3917 -79.3763,202.3584 -123.8312,261.9664 -25.268,33.8809 -56.758,65.78179 -87.99999,89.14829 -60.8249,45.492 -134.0161,74.5031 -211.5,83.8332 -7.15,0.861 -16.15,2.0493 -20,2.6409 -8.5799,1.3182 -65.9735,2.0413 -77,0.9701 z M -2056.005,-51.732586 c 53.7704,-12.1215 103.3597,-18.7494 181.1692,-24.2143 28.2251,-1.9824 133.5884,-1.647 164.5,0.5236 52.7726,3.7057 91.6441,7.9152 136.4185,14.7733 17.9301,2.7464 26.2389,3.6497 26.9578,2.9308 0.5715,-0.5715 1.0581,-3.3946 1.0814,-6.2735 l 0.042,-5.2343 -4.7674,-1.1847 c -6.4225,-1.5959 -57.0067,-8.8537 -78.7326,-11.2966 -57.7327,-6.4913 -87.4254,-8.1952 -152.6356,-8.7588 -84.7535,-0.7326 -137.0581,2.4111 -204.8644,12.313 -35.0307,5.1157 -89.1034,16.0072 -92.1908,18.5695 -2.6731,2.2185 0.2055,11.8417 3.5423,11.8417 0.9796,0 9.7453,-1.7954 19.4793,-3.9897 z M -399.33581,-607.61706 c 0,-0.275 -1.35,0.79338 -3,2.37418 -1.65,1.5808 -3,3.09918 -3,3.37418 0,0.275 1.35,-0.79338 3,-2.37418 1.65,-1.5808 3,-3.09918 3,-3.37418 z m 21,-3.62582 c 0.6847,-0.825 1.0199,-1.5 0.7449,-1.5 -0.275,0 -1.0602,0.675 -1.7449,1.5 -0.6847,0.825 -1.0199,1.5 -0.7449,1.5 0.275,0 1.0602,-0.675 1.7449,-1.5 z M -1412.8358,-898.74289 c -0.3399,-0.55 -1.379,-0.9684 -2.309,-0.9297 -1.3785,0.057 -1.3214,0.2291 0.309,0.9297 2.6759,1.1499 2.7107,1.1499 2,0 z"
       id="path4757" />
    <path
       inkscape:connector-curvature="0"
       style="fill:#14cbec"
       d="m -1328.8358,1122.316 c -48.8073,-4.7415 -84.8482,-11.4753 -123.7972,-23.1299 -62.4712,-18.6932 -123.1222,-49.1705 -174.7028,-87.7886 -37.2097,-27.85879 -74.488,-65.07929 -100.7966,-100.64039 -50.6388,-68.4479 -81.0309,-151.105 -84.7525,-230.5 -0.7448,-15.8908 0.732,-53.1416 3.1319,-79 3.984,-42.9255 11.9761,-89.708 22.7924,-133.417 2.4386,-9.8544 4.199,-18.5291 3.9119,-19.2771 -0.4181,-1.0897 -2.3372,-1.2056 -9.6545,-0.583 -14.3369,1.2199 -104.0824,0.7744 -122.6326,-0.6088 -51.7705,-3.8601 -106.1693,-11.0649 -148,-19.6016 -74.7106,-15.2468 -141.2709,-45.6922 -197,-90.1098 -25.13,-20.0293 -56.7256,-53.5515 -76.7244,-81.4027 -39.6891,-55.2728 -66.8405,-125.1199 -76.1905,-195.999996 -1.1245,-8.525 -2.6075,-19.1 -3.2955,-23.5 -1.7087,-10.9272 -1.7457,-73.2417 -0.05,-83.5 0.682,-4.125 1.9459,-13.35 2.8087,-20.5 4.5551,-37.748104 15.2915,-79.897404 29.9299,-117.500004 22.859,-58.7192 56.7944,-111.6204 100.0114,-155.9057 40.1117,-41.103 79.441,-69.7197 130.01,-94.5973 31.424,-15.4592 50.6517,-22.412 90,-32.5443 56.3348,-14.5065 115.534,-24.3657 177,-29.4784 10.45,-0.8692 19.4094,-1.9884 19.9098,-2.4872 0.546,-0.5441 -0.9307,-5.2226 -3.692,-11.6969 -29.1899,-68.44295 -56.1663,-181.4145 -61.7963,-258.7902 -1.4657,-20.143 -0.6588,-62.6369 1.5096,-79.5 6.1114,-47.5275 18.7252,-89.3692 39.0687,-129.597 66.4935,-131.48551 211.7406,-225.84071 381.5356,-247.85261 10.7055,-1.3879 23.0646,-3.0009 27.4646,-3.5844 12.2943,-1.6307 61.9513,-2.3099 79,-1.0806 118.3426,8.533 218.8702,47.7141 300,116.9264 13.9679,11.9161 41.5578,39.8431 50.5702,51.1882 40.0553,50.4227 83.96879,125.57431 112.74689,192.94961 4.3342,10.1473 8.3463,18.6049 8.9158,18.7947 0.5695,0.1898 4.9831,-3.3122 9.8081,-7.7822 22.4047,-20.7568 75.8441,-56.44 129.459,-86.444 32.6191,-18.2544 89.6955,-45.4779 119.4952,-56.99521 148.2745,-57.3068 305.5379,-37.9076 434.7198,53.62481 30.0642,21.3022 72.1094,60.185 94.9973,87.8523 61.525996,74.3738 100.155996,160.0853 112.674496,250.00001 6.2128,44.6233 5.288,96.45259 -2.4803,138.99999 -10.0142,54.8485 -33.1179,112.7076 -62.6916,157 -31.573896,47.2882 -99.479796,117.6058 -163.163896,168.9588 -6.903,5.5665 -12.551,10.6794 -12.551,11.3621 0,0.6826 4.1277,3.6848 9.1727,6.6716 35.4674,20.9971 92.1265,63.624504 134.8273,101.437204 18.3126,16.2162 64.041596,61.5532 75.657996,75.0094 51.74559958,59.940796 83.7535,126.385596 95.7922,198.853296 4.6835,28.1929 6.7851,66.1021 4.696,84.7076 -0.5867,5.225 -1.7796,16.025 -2.651,24 -8.8833,81.3013 -47.8334004,168.8538 -106.2547,238.8405 -81.941796,98.1635 -195.675596,164.2348 -317.740496,184.5847 -32.2037,5.3688 -41.3513,6.0359 -82.5,6.0165 -41.1149,-0.02 -49.3932,-0.6274 -82,-6.0221 -27.7677,-4.594 -48.8135,-10.3065 -81.453,-22.1087 -57.4686,-20.7803 -112.3687,-46.2743 -164.7945,-76.5257 -7.5611,-4.3631 -14.4941,-7.7871 -15.4065,-7.609 -1.201,0.2344 -2.4477,3.3613 -4.5148,11.3238 -19.832,76.3917 -79.3763,202.3584 -123.8312,261.9664 -25.268,33.8809 -56.758,65.78179 -87.99999,89.14829 -60.8249,45.492 -134.0161,74.5031 -211.5,83.8332 -7.15,0.861 -16.15,2.0493 -20,2.6409 -8.5799,1.3182 -65.9735,2.0413 -77,0.9701 z M -2056.005,-51.732586 c 53.7704,-12.1215 103.3597,-18.7494 181.1692,-24.2143 28.2251,-1.9824 133.5884,-1.647 164.5,0.5236 52.7726,3.7057 91.6441,7.9152 136.4185,14.7733 17.9301,2.7464 26.2389,3.6497 26.9578,2.9308 0.5715,-0.5715 1.0581,-3.3946 1.0814,-6.2735 l 0.042,-5.2343 -4.7674,-1.1847 c -6.4225,-1.5959 -57.0067,-8.8537 -78.7326,-11.2966 -57.7327,-6.4913 -87.4254,-8.1952 -152.6356,-8.7588 -84.7535,-0.7326 -137.0581,2.4111 -204.8644,12.313 -35.0307,5.1157 -89.1034,16.0072 -92.1908,18.5695 -2.6731,2.2185 0.2055,11.8417 3.5423,11.8417 0.9796,0 9.7453,-1.7954 19.4793,-3.9897 z M -772.33581,-327.19759 c 118.7472,-56.1302 236.1532,-134.0769 326.5944,-216.8285 27.4323,-25.09999 74.4056,-73.51653 74.4056,-76.69178 0,-1.51911 -6.3713,-7.01539 -8.1381,-7.02038 -0.9009,-0.003 -9.937,8.88287 -20.0802,19.74537 -94.5299,101.23369 -222.2497,192.53279 -371.0621,265.24979 -24.1366,11.7943 -31.7196,15.93 -31.7196,17.2996 0,2.1044 2.8174,7.9031 4.3061,8.8626 1.3457,0.8673 1.7663,0.6935 25.6939,-10.6167 z m -640.49999,-571.5453 c -0.3399,-0.55 -1.379,-0.9684 -2.309,-0.9297 -1.3785,0.057 -1.3214,0.2291 0.309,0.9297 2.6759,1.1499 2.7107,1.1499 2,0 z"
       id="path4755" />
    <g
       id="g4777">
      <path
         inkscape:connector-curvature="0"
         id="path4753"
         d="m -1328.8358,1122.316 c -48.8073,-4.7415 -84.8482,-11.4753 -123.7972,-23.1299 -62.4712,-18.6932 -123.1222,-49.1705 -174.7028,-87.7886 -37.2097,-27.85879 -74.488,-65.07929 -100.7966,-100.64039 -50.6388,-68.4479 -81.0309,-151.105 -84.7525,-230.5 -0.7448,-15.8908 0.732,-53.1416 3.1319,-79 3.984,-42.9255 11.9761,-89.708 22.7924,-133.417 2.4386,-9.8544 4.199,-18.5291 3.9119,-19.2771 -0.4181,-1.0897 -2.3372,-1.2056 -9.6545,-0.583 -14.3369,1.2199 -104.0824,0.7744 -122.6326,-0.6088 -51.7705,-3.8601 -106.1693,-11.0649 -148,-19.6016 -74.7106,-15.2468 -141.2709,-45.6922 -197,-90.1098 -25.13,-20.0293 -56.7256,-53.5515 -76.7244,-81.4027 -39.6891,-55.2728 -66.8405,-125.1199 -76.1905,-195.999996 -1.1245,-8.525 -2.6075,-19.1 -3.2955,-23.5 -1.7087,-10.9272 -1.7457,-73.2417 -0.05,-83.5 0.682,-4.125 1.9459,-13.35 2.8087,-20.5 4.5551,-37.748104 15.2915,-79.897404 29.9299,-117.500004 22.859,-58.7192 56.7944,-111.6204 100.0114,-155.9057 40.1117,-41.103 79.441,-69.7197 130.01,-94.5973 31.424,-15.4592 50.6517,-22.412 90,-32.5443 56.3348,-14.5065 115.534,-24.3657 177,-29.4784 10.45,-0.8692 19.4094,-1.9884 19.9098,-2.4872 0.546,-0.5441 -0.9307,-5.2226 -3.692,-11.6969 -29.1899,-68.44295 -56.1663,-181.4145 -61.7963,-258.7902 -1.4657,-20.143 -0.6588,-62.6369 1.5096,-79.5 6.1114,-47.5275 18.7252,-89.3692 39.0687,-129.597 66.4935,-131.48551 211.7406,-225.84071 381.5356,-247.85261 10.7055,-1.3879 23.0646,-3.0009 27.4646,-3.5844 12.2943,-1.6307 61.9513,-2.3099 79,-1.0806 118.3426,8.533 218.8702,47.7141 300,116.9264 13.9679,11.9161 41.5578,39.8431 50.5702,51.1882 40.0553,50.4227 83.96879,125.57431 112.74689,192.94961 4.3342,10.1473 8.3463,18.6049 8.9158,18.7947 0.5695,0.1898 4.9831,-3.3122 9.8081,-7.7822 22.4047,-20.7568 75.8441,-56.44 129.459,-86.444 32.6191,-18.2544 89.6955,-45.4779 119.4952,-56.99521 148.2745,-57.3068 305.5379,-37.9076 434.7198,53.62481 30.0642,21.3022 72.1094,60.185 94.9973,87.8523 61.525996,74.3738 100.155996,160.0853 112.674496,250.00001 6.2128,44.6233 5.288,96.45259 -2.4803,138.99999 -10.0142,54.8485 -33.1179,112.7076 -62.6916,157 -31.573896,47.2882 -99.479796,117.6058 -163.163896,168.9588 -6.903,5.5665 -12.551,10.6794 -12.551,11.3621 0,0.6826 4.1277,3.6848 9.1727,6.6716 35.4674,20.9971 92.1265,63.624504 134.8273,101.437204 18.3126,16.2162 64.041596,61.5532 75.657996,75.0094 51.74559958,59.940796 83.7535,126.385596 95.7922,198.853296 4.6835,28.1929 6.7851,66.1021 4.696,84.7076 -0.5867,5.225 -1.7796,16.025 -2.651,24 -8.8833,81.3013 -47.8334004,168.8538 -106.2547,238.8405 -81.941796,98.1635 -195.675596,164.2348 -317.740496,184.5847 -32.2037,5.3688 -41.3513,6.0359 -82.5,6.0165 -41.1149,-0.02 -49.3932,-0.6274 -82,-6.0221 -27.7677,-4.594 -48.8135,-10.3065 -81.453,-22.1087 -57.4686,-20.7803 -112.3687,-46.2743 -164.7945,-76.5257 -7.5611,-4.3631 -14.4941,-7.7871 -15.4065,-7.609 -1.201,0.2344 -2.4477,3.3613 -4.5148,11.3238 -19.832,76.3917 -79.3763,202.3584 -123.8312,261.9664 -25.268,33.8809 -56.758,65.78179 -87.99999,89.14829 -60.8249,45.492 -134.0161,74.5031 -211.5,83.8332 -7.15,0.861 -16.15,2.0493 -20,2.6409 -8.5799,1.3182 -65.9735,2.0413 -77,0.9701 z M -2056.005,-51.732586 c 53.7704,-12.1215 103.3597,-18.7494 181.1692,-24.2143 28.2251,-1.9824 133.5884,-1.647 164.5,0.5236 52.7726,3.7057 91.6441,7.9152 136.4185,14.7733 17.9301,2.7464 26.2389,3.6497 26.9578,2.9308 0.5715,-0.5715 1.0581,-3.3946 1.0814,-6.2735 l 0.042,-5.2343 -4.7674,-1.1847 c -6.4225,-1.5959 -57.0067,-8.8537 -78.7326,-11.2966 -57.7327,-6.4913 -87.4254,-8.1952 -152.6356,-8.7588 -84.7535,-0.7326 -137.0581,2.4111 -204.8644,12.313 -35.0307,5.1157 -89.1034,16.0072 -92.1908,18.5695 -2.6731,2.2185 0.2055,11.8417 3.5423,11.8417 0.9796,0 9.7453,-1.7954 19.4793,-3.9897 z M -772.33581,-327.19759 c 118.7472,-56.1302 236.1532,-134.0769 326.5944,-216.8285 27.4323,-25.09999 74.4056,-73.51653 74.4056,-76.69178 0,-1.51911 -6.3713,-7.01539 -8.1381,-7.02038 -0.9009,-0.003 -9.937,8.88287 -20.0802,19.74537 -94.5299,101.23369 -222.2497,192.53279 -371.0621,265.24979 -24.1366,11.7943 -31.7196,15.93 -31.7196,17.2996 0,2.1044 2.8174,7.9031 4.3061,8.8626 1.3457,0.8673 1.7663,0.6935 25.6939,-10.6167 z m -467.74999,-94.2017 c 1.4554,-0.8958 0.7122,-8.8662 -2.7732,-29.7418 -22.1322,-132.5578 -66.1364,-264.2189 -124.3492,-372.0542 -17.6411,-32.6789 -44.7177,-76.5476 -47.2468,-76.5476 -1.9533,0 -8.8379,5.4806 -8.8595,7.0527 -0.012,0.854 3.1916,6.479 7.1185,12.5 51.741,79.3336 97.5108,182.7044 128.3808,289.94731 13.4466,46.71389 23.3361,90.39949 31.5411,139.32929 2.7051,16.1311 5.201,29.7867 5.5465,30.3458 0.5839,0.9447 8.799,0.3028 10.6418,-0.8315 z"
         style="fill:#000000" />
    </g>
  </g>
  <rect
     style="opacity:0;fill:#fcfcfc;fill-opacity:0"
     id="rect4793"
     width="517.14288"
     height="114.28571"
     x="5.7142859"
     y="102.85719" />
  <path
     inkscape:connector-curvature="0"
     style="opacity:0;fill:#fcfcfc;fill-opacity:0"
     d="m 211.83735,214.563 c -34.41427,-4.92758 -61.11725,-18.02041 -70.64811,-34.63973 -5.16596,-9.00807 -5.619,-16.78743 -1.70922,-29.34958 l 2.64267,-8.49092 -25.14267,-0.82954 C 77.810808,139.9609 54.469342,133.99179 38.062752,121.0717 26.949825,112.32033 21.8632,102.02596 22.915845,90.4172 23.329123,85.8595 24.768929,80.00008 26.115413,77.39626 30.59563,68.73248 41.894718,58.99119 54.333126,53.06891 71.360742,44.96157 84.075245,42.143573 115.44637,39.52398 l 10.75188,-0.897817 -5.43629,-10.979489 c -10.01308,-20.22308 -8.61993,-33.06596 4.90608,-45.227 9.04127,-8.12888 21.6147,-14.171718 39.42524,-18.947918 12.69558,-3.404537 16.27675,-3.726257 41.74407,-3.750144 31.99186,-0.03001 41.82783,1.848276 62.26558,11.890268 9.16349,4.502436 13.7897,8.018576 22.37976,17.009694 l 10.82846,11.33402 12.62024,-5.029481 c 6.94113,-2.766216 20.0131,-6.993631 29.04882,-9.394259 15.07058,-4.003982 18.31794,-4.364034 39.28571,-4.355814 19.03049,0.0074 24.7566,0.529614 34.20283,3.118894 24.21078,6.636352 44.05343,20.085715 51.40798,34.844376 4.59299,9.21692 4.67139,16.789577 0.2702,26.099306 -4.83494,10.227264 -14.31841,18.088274 -33.43558,27.715334 -8.00422,4.03078 -10.4673,7.28467 -5.51426,7.28467 0.96942,0 9.486,3.80813 18.92577,8.46252 32.37096,15.96088 43.21223,31.42965 34.88516,49.77556 -8.0721,17.78419 -38.05273,34.2677 -70.54724,38.78727 -23.70892,3.2976 -44.79375,1.35639 -73.00382,-6.72124 l -14.23753,-4.07674 -5.582,8.63643 c -17.30308,26.77122 -42.1283,38.97455 -81.65722,40.14021 -10.21429,0.30121 -22.42858,-0.004 -27.14286,-0.67963 z M 142.19488,86.66719 c 24.5538,0 44.64308,-0.42028 44.64287,-0.93396 -0.001,-2.87535 -85.60717,-3.21044 -97.500402,-0.38166 -6.383357,1.51828 -4.52799,3.59969 2.142857,2.40393 3.339286,-0.59857 26.160895,-1.08831 50.714675,-1.08831 z M 351.83735,51.70752 c 27.03214,-9.118714 57.64428,-24.060373 55.7092,-27.19142 -0.41196,-0.666561 -5.07934,1.319423 -10.37197,4.413299 -12.55427,7.338778 -35.74966,17.036467 -54.97979,22.986331 -8.44626,2.6133 -15.35697,5.28468 -15.35714,5.93639 -4.2e-4,1.66486 6.81397,-0.01 24.9997,-6.1446 z M 243.72326,42.02433 c -3.62893,-13.359414 -23.86674,-44.45434 -30.61903,-47.045437 -4.81872,-1.849116 -3.50851,1.504066 3.3249,8.509351 9.35946,9.594866 17.88119,22.976733 22.07045,34.657703 3.64517,10.163905 7.7612,13.219893 5.22368,3.878383 z"
     id="path4795" />
  <path
     inkscape:connector-curvature="0"
     style="opacity:0;fill:#fcfcfc;fill-opacity:0"
     d="m 211.83735,214.563 c -34.41427,-4.92758 -61.11725,-18.02041 -70.64811,-34.63973 -5.16596,-9.00807 -5.619,-16.78743 -1.70922,-29.34958 l 2.64267,-8.49092 -25.14267,-0.82954 C 77.810808,139.9609 54.469342,133.99179 38.062752,121.0717 26.949825,112.32033 21.8632,102.02596 22.915845,90.4172 23.329123,85.8595 24.768929,80.00008 26.115413,77.39626 30.59563,68.73248 41.894718,58.99119 54.333126,53.06891 71.360742,44.96157 84.075245,42.143573 115.44637,39.52398 l 10.75188,-0.897817 -5.43629,-10.979489 c -10.01308,-20.22308 -8.61993,-33.06596 4.90608,-45.227 9.04127,-8.12888 21.6147,-14.171718 39.42524,-18.947918 12.69558,-3.404537 16.27675,-3.726257 41.74407,-3.750144 31.99186,-0.03001 41.82783,1.848276 62.26558,11.890268 9.16349,4.502436 13.7897,8.018576 22.37976,17.009694 l 10.82846,11.33402 12.62024,-5.029481 c 6.94113,-2.766216 20.0131,-6.993631 29.04882,-9.394259 15.07058,-4.003982 18.31794,-4.364034 39.28571,-4.355814 19.03049,0.0074 24.7566,0.529614 34.20283,3.118894 24.21078,6.636352 44.05343,20.085715 51.40798,34.844376 4.59299,9.21692 4.67139,16.789577 0.2702,26.099306 -4.83494,10.227264 -14.31841,18.088274 -33.43558,27.715334 -8.00422,4.03078 -10.4673,7.28467 -5.51426,7.28467 0.96942,0 9.486,3.80813 18.92577,8.46252 32.37096,15.96088 43.21223,31.42965 34.88516,49.77556 -8.0721,17.78419 -38.05273,34.2677 -70.54724,38.78727 -23.70892,3.2976 -44.79375,1.35639 -73.00382,-6.72124 l -14.23753,-4.07674 -5.582,8.63643 c -17.30308,26.77122 -42.1283,38.97455 -81.65722,40.14021 -10.21429,0.30121 -22.42858,-0.004 -27.14286,-0.67963 z M 142.19488,86.66719 c 24.5538,0 44.64308,-0.42028 44.64287,-0.93396 -0.001,-2.87535 -85.60717,-3.21044 -97.500402,-0.38166 -6.383357,1.51828 -4.52799,3.59969 2.142857,2.40393 3.339286,-0.59857 26.160895,-1.08831 50.714675,-1.08831 z M 351.83735,51.70752 c 27.03214,-9.118714 57.64428,-24.060373 55.7092,-27.19142 -0.41196,-0.666561 -5.07934,1.319423 -10.37197,4.413299 -12.55427,7.338778 -35.74966,17.036467 -54.97979,22.986331 -8.44626,2.6133 -15.35697,5.28468 -15.35714,5.93639 -4.2e-4,1.66486 6.81397,-0.01 24.9997,-6.1446 z M 243.72326,42.02433 c -3.62893,-13.359414 -23.86674,-44.45434 -30.61903,-47.045437 -4.81872,-1.849116 -3.50851,1.504066 3.3249,8.509351 9.35946,9.594866 17.88119,22.976733 22.07045,34.657703 3.64517,10.163905 7.7612,13.219893 5.22368,3.878383 z"
     id="path4797" />
  <path
     inkscape:connector-curvature="0"
     style="opacity:0;fill:#fcfcfc;fill-opacity:0"
     d="m 211.83735,214.563 c -34.41427,-4.92758 -61.11725,-18.02041 -70.64811,-34.63973 -5.16596,-9.00807 -5.619,-16.78743 -1.70922,-29.34958 l 2.64267,-8.49092 -25.14267,-0.82954 C 77.810808,139.9609 54.469342,133.99179 38.062752,121.0717 26.949825,112.32033 21.8632,102.02596 22.915845,90.4172 23.329123,85.8595 24.768929,80.00008 26.115413,77.39626 30.59563,68.73248 41.894718,58.99119 54.333126,53.06891 71.360742,44.96157 84.075245,42.143573 115.44637,39.52398 l 10.75188,-0.897817 -5.43629,-10.979489 c -10.01308,-20.22308 -8.61993,-33.06596 4.90608,-45.227 9.04127,-8.12888 21.6147,-14.171718 39.42524,-18.947918 12.69558,-3.404537 16.27675,-3.726257 41.74407,-3.750144 31.99186,-0.03001 41.82783,1.848276 62.26558,11.890268 9.16349,4.502436 13.7897,8.018576 22.37976,17.009694 l 10.82846,11.33402 12.62024,-5.029481 c 6.94113,-2.766216 20.0131,-6.993631 29.04882,-9.394259 15.07058,-4.003982 18.31794,-4.364034 39.28571,-4.355814 19.03049,0.0074 24.7566,0.529614 34.20283,3.118894 24.21078,6.636352 44.05343,20.085715 51.40798,34.844376 4.59299,9.21692 4.67139,16.789577 0.2702,26.099306 -4.83494,10.227264 -14.31841,18.088274 -33.43558,27.715334 -8.00422,4.03078 -10.4673,7.28467 -5.51426,7.28467 0.96942,0 9.486,3.80813 18.92577,8.46252 32.37096,15.96088 43.21223,31.42965 34.88516,49.77556 -8.0721,17.78419 -38.05273,34.2677 -70.54724,38.78727 -23.70892,3.2976 -44.79375,1.35639 -73.00382,-6.72124 l -14.23753,-4.07674 -5.582,8.63643 c -17.30308,26.77122 -42.1283,38.97455 -81.65722,40.14021 -10.21429,0.30121 -22.42858,-0.004 -27.14286,-0.67963 z M 142.19488,86.66719 c 24.5538,0 44.64308,-0.42028 44.64287,-0.93396 -0.001,-2.87535 -85.60717,-3.21044 -97.500402,-0.38166 -6.383357,1.51828 -4.52799,3.59969 2.142857,2.40393 3.339286,-0.59857 26.160895,-1.08831 50.714675,-1.08831 z M 351.83735,51.70752 c 27.03214,-9.118714 57.64428,-24.060373 55.7092,-27.19142 -0.41196,-0.666561 -5.07934,1.319423 -10.37197,4.413299 -12.55427,7.338778 -35.74966,17.036467 -54.97979,22.986331 -8.44626,2.6133 -15.35697,5.28468 -15.35714,5.93639 -4.2e-4,1.66486 6.81397,-0.01 24.9997,-6.1446 z M 243.72326,42.02433 c -3.62893,-13.359414 -23.86674,-44.45434 -30.61903,-47.045437 -4.81872,-1.849116 -3.50851,1.504066 3.3249,8.509351 9.35946,9.594866 17.88119,22.976733 22.07045,34.657703 3.64517,10.163905 7.7612,13.219893 5.22368,3.878383 z"
     id="path4799" />
  <path
     inkscape:connector-curvature="0"
     style="opacity:0;fill:#fcfcfc;fill-opacity:0"
     d="m 211.83735,214.563 c -34.41427,-4.92758 -61.11725,-18.02041 -70.64811,-34.63973 -5.16596,-9.00807 -5.619,-16.78743 -1.70922,-29.34958 l 2.64267,-8.49092 -25.14267,-0.82954 C 77.810808,139.9609 54.469342,133.99179 38.062752,121.0717 26.949825,112.32033 21.8632,102.02596 22.915845,90.4172 23.329123,85.8595 24.768929,80.00008 26.115413,77.39626 30.59563,68.73248 41.894718,58.99119 54.333126,53.06891 71.360742,44.96157 84.075245,42.143573 115.44637,39.52398 l 10.75188,-0.897817 -5.43629,-10.979489 c -10.01308,-20.22308 -8.61993,-33.06596 4.90608,-45.227 9.04127,-8.12888 21.6147,-14.171718 39.42524,-18.947918 12.69558,-3.404537 16.27675,-3.726257 41.74407,-3.750144 31.99186,-0.03001 41.82783,1.848276 62.26558,11.890268 9.16349,4.502436 13.7897,8.018576 22.37976,17.009694 l 10.82846,11.33402 12.62024,-5.029481 c 6.94113,-2.766216 20.0131,-6.993631 29.04882,-9.394259 15.07058,-4.003982 18.31794,-4.364034 39.28571,-4.355814 19.03049,0.0074 24.7566,0.529614 34.20283,3.118894 24.21078,6.636352 44.05343,20.085715 51.40798,34.844376 4.59299,9.21692 4.67139,16.789577 0.2702,26.099306 -4.83494,10.227264 -14.31841,18.088274 -33.43558,27.715334 -8.00422,4.03078 -10.4673,7.28467 -5.51426,7.28467 0.96942,0 9.486,3.80813 18.92577,8.46252 32.37096,15.96088 43.21223,31.42965 34.88516,49.77556 -8.0721,17.78419 -38.05273,34.2677 -70.54724,38.78727 -23.70892,3.2976 -44.79375,1.35639 -73.00382,-6.72124 l -14.23753,-4.07674 -5.582,8.63643 c -17.30308,26.77122 -42.1283,38.97455 -81.65722,40.14021 -10.21429,0.30121 -22.42858,-0.004 -27.14286,-0.67963 z M 142.19488,86.66719 c 24.5538,0 44.64308,-0.42028 44.64287,-0.93396 -0.001,-2.87535 -85.60717,-3.21044 -97.500402,-0.38166 -6.383357,1.51828 -4.52799,3.59969 2.142857,2.40393 3.339286,-0.59857 26.160895,-1.08831 50.714675,-1.08831 z M 351.83735,51.70752 c 27.03214,-9.118714 57.64428,-24.060373 55.7092,-27.19142 -0.41196,-0.666561 -5.07934,1.319423 -10.37197,4.413299 -12.55427,7.338778 -35.74966,17.036467 -54.97979,22.986331 -8.44626,2.6133 -15.35697,5.28468 -15.35714,5.93639 -4.2e-4,1.66486 6.81397,-0.01 24.9997,-6.1446 z M 243.72326,42.02433 c -3.62893,-13.359414 -23.86674,-44.45434 -30.61903,-47.045437 -4.81872,-1.849116 -3.50851,1.504066 3.3249,8.509351 9.35946,9.594866 17.88119,22.976733 22.07045,34.657703 3.64517,10.163905 7.7612,13.219893 5.22368,3.878383 z"
     id="path4801" />
  <path
     inkscape:connector-curvature="0"
     style="opacity:0;fill:#fcfcfc;fill-opacity:0"
     d="m 211.83735,214.563 c -34.41427,-4.92758 -61.11725,-18.02041 -70.64811,-34.63973 -5.16596,-9.00807 -5.619,-16.78743 -1.70922,-29.34958 l 2.64267,-8.49092 -25.14267,-0.82954 C 77.810808,139.9609 54.469342,133.99179 38.062752,121.0717 26.949825,112.32033 21.8632,102.02596 22.915845,90.4172 23.329123,85.8595 24.768929,80.00008 26.115413,77.39626 30.59563,68.73248 41.894718,58.99119 54.333126,53.06891 71.360742,44.96157 84.075245,42.143573 115.44637,39.52398 l 10.75188,-0.897817 -5.43629,-10.979489 c -10.01308,-20.22308 -8.61993,-33.06596 4.90608,-45.227 9.04127,-8.12888 21.6147,-14.171718 39.42524,-18.947918 12.69558,-3.404537 16.27675,-3.726257 41.74407,-3.750144 31.99186,-0.03001 41.82783,1.848276 62.26558,11.890268 9.16349,4.502436 13.7897,8.018576 22.37976,17.009694 l 10.82846,11.33402 12.62024,-5.029481 c 6.94113,-2.766216 20.0131,-6.993631 29.04882,-9.394259 15.07058,-4.003982 18.31794,-4.364034 39.28571,-4.355814 19.03049,0.0074 24.7566,0.529614 34.20283,3.118894 24.21078,6.636352 44.05343,20.085715 51.40798,34.844376 4.59299,9.21692 4.67139,16.789577 0.2702,26.099306 -4.83494,10.227264 -14.31841,18.088274 -33.43558,27.715334 -8.00422,4.03078 -10.4673,7.28467 -5.51426,7.28467 0.96942,0 9.486,3.80813 18.92577,8.46252 32.37096,15.96088 43.21223,31.42965 34.88516,49.77556 -8.0721,17.78419 -38.05273,34.2677 -70.54724,38.78727 -23.70892,3.2976 -44.79375,1.35639 -73.00382,-6.72124 l -14.23753,-4.07674 -5.582,8.63643 c -17.30308,26.77122 -42.1283,38.97455 -81.65722,40.14021 -10.21429,0.30121 -22.42858,-0.004 -27.14286,-0.67963 z M 142.19488,86.66719 c 24.5538,0 44.64308,-0.42028 44.64287,-0.93396 -0.001,-2.87535 -85.60717,-3.21044 -97.500402,-0.38166 -6.383357,1.51828 -4.52799,3.59969 2.142857,2.40393 3.339286,-0.59857 26.160895,-1.08831 50.714675,-1.08831 z M 351.83735,51.70752 c 27.03214,-9.118714 57.64428,-24.060373 55.7092,-27.19142 -0.41196,-0.666561 -5.07934,1.319423 -10.37197,4.413299 -12.55427,7.338778 -35.74966,17.036467 -54.97979,22.986331 -8.44626,2.6133 -15.35697,5.28468 -15.35714,5.93639 -4.2e-4,1.66486 6.81397,-0.01 24.9997,-6.1446 z M 243.72326,42.02433 c -3.62893,-13.359414 -23.86674,-44.45434 -30.61903,-47.045437 -4.81872,-1.849116 -3.50851,1.504066 3.3249,8.509351 9.35946,9.594866 17.88119,22.976733 22.07045,34.657703 3.64517,10.163905 7.7612,13.219893 5.22368,3.878383 z"
     id="path4803" />
  <flowRoot
     xml:space="preserve"
     id="flowRoot3454"
     style="font-style:normal;font-weight:normal;font-size:70px;line-height:200%;font-family:Sans;letter-spacing:0px;word-spacing:0px;fill:#000000;fill-opacity:1;stroke:none;stroke-width:1px;stroke-linecap:butt;stroke-linejoin:miter;stroke-opacity:1"
     transform="translate(0,-50)"><flowRegion
       id="flowRegion3456"><rect
         id="rect3458"
         width="647.81879"
         height="71.979866"
         x="639.09393"
         y="6.0402684"
         style="font-size:70px" /></flowRegion><flowPara
       id="flowPara3460" /></flowRoot>  <g
     transform="scale(1.0212335,0.97920799)"
     style="font-style:normal;font-weight:normal;font-size:29.10682678px;line-height:200%;font-family:Sans;letter-spacing:0px;word-spacing:0px;fill:#000000;fill-opacity:1;stroke:none;stroke-width:1px;stroke-linecap:butt;stroke-linejoin:miter;stroke-opacity:1"
     id="text3462">
    <path
       d="m 1379.5118,23.014116 8.904,0 0,27.358711 q 0,5.5961 -2.6861,8.530944 -2.6861,2.959715 -7.7848,2.959715 l -4.4023,0 0,-5.844816 1.5421,0 q 2.5369,0 3.482,-1.144091 0.9451,-1.144092 0.9451,-4.501752 l 0,-27.358711 z m 0,-10.843999 8.904,0 0,7.262494 -8.904,0 0,-7.262494 z"
       style="font-style:normal;font-variant:normal;font-weight:bold;font-stretch:normal;font-size:50.93694687px;font-family:'DejaVu Sans';-inkscape-font-specification:'DejaVu Sans Bold'"
       id="path3359" />
    <path
       d="m 1410.2779,28.709702 q -2.9597,0 -4.5266,2.138954 -1.5421,2.114082 -1.5421,6.118402 0,4.004321 1.5421,6.143275 1.5669,2.114082 4.5266,2.114082 2.91,0 4.452,-2.114082 1.5421,-2.138954 1.5421,-6.143275 0,-4.00432 -1.5421,-6.118402 -1.542,-2.138954 -4.452,-2.138954 z m 0,-6.367119 q 7.1879,0 11.2171,3.879963 4.054,3.879963 4.054,10.744512 0,6.86455 -4.054,10.744513 -4.0292,3.879962 -11.2171,3.879962 -7.2127,0 -11.2917,-3.879962 -4.054,-3.879963 -4.054,-10.744513 0,-6.864549 4.054,-10.744512 4.079,-3.879963 11.2917,-3.879963 z"
       style="font-style:normal;font-variant:normal;font-weight:bold;font-stretch:normal;font-size:50.93694687px;font-family:'DejaVu Sans';-inkscape-font-specification:'DejaVu Sans Bold'"
       id="path3361" />
    <path
       d="m 1428.3844,23.014116 8.904,0 7.4864,18.902382 6.3671,-18.902382 8.904,0 -11.7145,30.492527 q -1.7659,4.650981 -4.1287,6.491476 -2.3379,1.865367 -6.193,1.865367 l -5.1484,0 0,-5.844816 2.7856,0 q 2.2633,0 3.283,-0.721275 1.0446,-0.721275 1.6167,-2.586642 l 0.2487,-0.771018 -12.4109,-28.925619 z"
       style="font-style:normal;font-variant:normal;font-weight:bold;font-stretch:normal;font-size:50.93694687px;font-family:'DejaVu Sans';-inkscape-font-specification:'DejaVu Sans Bold'"
       id="path3363" />
  </g>
  <g
     style="font-style:normal;font-weight:normal;font-size:40px;line-height:200%;font-family:Sans;letter-spacing:0px;word-spacing:0px;fill:#000000;fill-opacity:1;stroke:none;stroke-width:1px;stroke-linecap:butt;stroke-linejoin:miter;stroke-opacity:1"
     id="text3466">
    <path
       d="m 1071.619,70.506508 2.6953,0 0,16.40625 -2.6953,0 0,-16.40625 z m 0,-6.386719 2.6953,0 0,3.413086 -2.6953,0 0,-3.413086 z"
       style="font-style:normal;font-variant:normal;font-weight:normal;font-stretch:normal;font-size:30px;font-family:'DejaVu Sans';-inkscape-font-specification:'DejaVu Sans'"
       id="path3366" />
    <path
       d="m 1093.577,77.010414 0,9.902344 -2.6953,0 0,-9.814453 q 0,-2.329102 -0.9082,-3.486328 -0.9082,-1.157227 -2.7246,-1.157227 -2.1826,0 -3.4424,1.391602 -1.2597,1.391601 -1.2597,3.793945 l 0,9.272461 -2.71,0 0,-16.40625 2.71,0 0,2.548828 q 0.9667,-1.479492 2.2705,-2.211914 1.3183,-0.732422 3.0322,-0.732422 2.8271,0 4.2773,1.757813 1.4502,1.743164 1.4502,5.141601 z"
       style="font-style:normal;font-variant:normal;font-weight:normal;font-stretch:normal;font-size:30px;font-family:'DejaVu Sans';-inkscape-font-specification:'DejaVu Sans'"
       id="path3368" />
    <path
       d="m 1109.7782,72.996742 0,-8.876953 2.6953,0 0,22.792969 -2.6953,0 0,-2.460938 q -0.8496,1.464844 -2.1533,2.182618 -1.2891,0.703125 -3.1055,0.703125 -2.9736,0 -4.8486,-2.373047 -1.8604,-2.373047 -1.8604,-6.240235 0,-3.867187 1.8604,-6.240234 1.875,-2.373047 4.8486,-2.373047 1.8164,0 3.1055,0.717773 1.3037,0.703125 2.1533,2.167969 z m -9.1846,5.727539 q 0,2.973633 1.2158,4.672852 1.2305,1.68457 3.3692,1.68457 2.1387,0 3.3691,-1.68457 1.2305,-1.699219 1.2305,-4.672852 0,-2.973633 -1.2305,-4.658203 -1.2304,-1.699219 -3.3691,-1.699219 -2.1387,0 -3.3692,1.699219 -1.2158,1.68457 -1.2158,4.658203 z"
       style="font-style:normal;font-variant:normal;font-weight:normal;font-stretch:normal;font-size:30px;font-family:'DejaVu Sans';-inkscape-font-specification:'DejaVu Sans'"
       id="path3370" />
    <path
       d="m 1118.0253,70.506508 2.6953,0 0,16.40625 -2.6953,0 0,-16.40625 z m 0,-6.386719 2.6953,0 0,3.413086 -2.6953,0 0,-3.413086 z"
       style="font-style:normal;font-variant:normal;font-weight:normal;font-stretch:normal;font-size:30px;font-family:'DejaVu Sans';-inkscape-font-specification:'DejaVu Sans'"
       id="path3372" />
    <path
       d="m 1124.412,70.506508 2.8564,0 5.127,13.769531 5.1269,-13.769531 2.8565,0 -6.1524,16.40625 -3.6621,0 -6.1523,-16.40625 z"
       style="font-style:normal;font-variant:normal;font-weight:normal;font-stretch:normal;font-size:30px;font-family:'DejaVu Sans';-inkscape-font-specification:'DejaVu Sans'"
       id="path3374" />
    <path
       d="m 1144.0995,70.506508 2.6953,0 0,16.40625 -2.6953,0 0,-16.40625 z m 0,-6.386719 2.6953,0 0,3.413086 -2.6953,0 0,-3.413086 z"
       style="font-style:normal;font-variant:normal;font-weight:normal;font-stretch:normal;font-size:30px;font-family:'DejaVu Sans';-inkscape-font-specification:'DejaVu Sans'"
       id="path3376" />
    <path
       d="m 1159.8759,78.665688 q -3.2666,0 -4.5264,0.74707 -1.2598,0.74707 -1.2598,2.548828 0,1.435547 0.9375,2.285156 0.9522,0.834961 2.5781,0.834961 2.2413,0 3.5889,-1.582031 1.3623,-1.59668 1.3623,-4.233399 l 0,-0.600585 -2.6806,0 z m 5.3759,-1.113282 0,9.360352 -2.6953,0 0,-2.490235 q -0.9228,1.494141 -2.2998,2.211915 -1.3769,0.703125 -3.3691,0.703125 -2.5196,0 -4.0137,-1.40625 -1.4795,-1.420899 -1.4795,-3.793946 0,-2.768554 1.8457,-4.174804 1.8604,-1.40625 5.5371,-1.40625 l 3.7793,0 0,-0.263672 q 0,-1.860352 -1.2305,-2.871094 -1.2158,-1.025391 -3.4277,-1.025391 -1.4062,0 -2.7392,0.336914 -1.3331,0.336914 -2.5635,1.010743 l 0,-2.490235 q 1.4795,-0.571289 2.8711,-0.849609 1.3916,-0.292969 2.7099,-0.292969 3.5596,0 5.3174,1.845703 1.7578,1.845703 1.7578,5.595703 z"
       style="font-style:normal;font-variant:normal;font-weight:normal;font-stretch:normal;font-size:30px;font-family:'DejaVu Sans';-inkscape-font-specification:'DejaVu Sans'"
       id="path3378" />
    <path
       d="m 1173.3671,65.042641 0,8.129882 -2.4903,0 0,-8.129882 2.4903,0 z"
       style="font-style:normal;font-variant:normal;font-weight:normal;font-stretch:normal;font-size:30px;font-family:'DejaVu Sans';-inkscape-font-specification:'DejaVu Sans'"
       id="path3380" />
    <path
       d="m 1189.5389,70.989906 0,2.548828 q -1.1425,-0.585937 -2.373,-0.878906 -1.2305,-0.292969 -2.5488,-0.292969 -2.0069,0 -3.0176,0.615235 -0.9961,0.615234 -0.9961,1.845703 0,0.9375 0.7178,1.479492 0.7177,0.527344 2.8857,1.010742 l 0.9229,0.205078 q 2.8711,0.615235 4.0722,1.743164 1.2158,1.113282 1.2158,3.120118 0,2.285156 -1.8164,3.618164 -1.8017,1.333008 -4.9658,1.333008 -1.3183,0 -2.7539,-0.263672 -1.4209,-0.249024 -3.0029,-0.761719 l 0,-2.783203 q 1.4941,0.776367 2.9443,1.171875 1.4502,0.380859 2.8711,0.380859 1.9043,0 2.9297,-0.644531 1.0254,-0.65918 1.0254,-1.845703 0,-1.098633 -0.7471,-1.684571 -0.7324,-0.585937 -3.2373,-1.127929 l -0.9375,-0.219727 q -2.5049,-0.527344 -3.6181,-1.611328 -1.1133,-1.098633 -1.1133,-3.00293 0,-2.314453 1.6406,-3.574218 1.6406,-1.259766 4.6582,-1.259766 1.4941,0 2.8125,0.219727 1.3184,0.219726 2.4316,0.659179 z"
       style="font-style:normal;font-variant:normal;font-weight:normal;font-stretch:normal;font-size:30px;font-family:'DejaVu Sans';-inkscape-font-specification:'DejaVu Sans'"
       id="path3382" />
    <path
       d="m 1217.0487,73.655922 q 1.0107,-1.816406 2.417,-2.680664 1.4062,-0.864258 3.3105,-0.864258 2.5635,0 3.9551,1.801758 1.3916,1.787109 1.3916,5.097656 l 0,9.902344 -2.7099,0 0,-9.814453 q 0,-2.358399 -0.835,-3.500977 -0.835,-1.142578 -2.5488,-1.142578 -2.0948,0 -3.3106,1.391602 -1.2158,1.391601 -1.2158,3.793945 l 0,9.272461 -2.71,0 0,-9.814453 q 0,-2.373047 -0.8349,-3.500977 -0.835,-1.142578 -2.5781,-1.142578 -2.0655,0 -3.2813,1.40625 -1.2158,1.391602 -1.2158,3.779297 l 0,9.272461 -2.71,0 0,-16.40625 2.71,0 0,2.548828 q 0.9228,-1.508789 2.2119,-2.226563 1.2891,-0.717773 3.0615,-0.717773 1.7871,0 3.0323,0.908203 1.2597,0.908203 1.8603,2.636719 z"
       style="font-style:normal;font-variant:normal;font-weight:normal;font-stretch:normal;font-size:30px;font-family:'DejaVu Sans';-inkscape-font-specification:'DejaVu Sans'"
       id="path3384" />
    <path
       d="m 1233.2352,80.438148 0,-9.93164 2.6953,0 0,9.829101 q 0,2.329102 0.9082,3.500977 0.9082,1.157227 2.7247,1.157227 2.1826,0 3.4423,-1.391602 1.2745,-1.391602 1.2745,-3.793945 l 0,-9.301758 2.6953,0 0,16.40625 -2.6953,0 0,-2.519531 q -0.9815,1.49414 -2.2852,2.226562 -1.2891,0.717774 -3.0029,0.717774 -2.8272,0 -4.292,-1.757813 -1.4649,-1.757812 -1.4649,-5.141602 z m 6.7823,-10.327148 0,0 z"
       style="font-style:normal;font-variant:normal;font-weight:normal;font-stretch:normal;font-size:30px;font-family:'DejaVu Sans';-inkscape-font-specification:'DejaVu Sans'"
       id="path3386" />
    <path
       d="m 1252.5565,64.119789 2.6953,0 0,22.792969 -2.6953,0 0,-22.792969 z"
       style="font-style:normal;font-variant:normal;font-weight:normal;font-stretch:normal;font-size:30px;font-family:'DejaVu Sans';-inkscape-font-specification:'DejaVu Sans'"
       id="path3388" />
    <path
       d="m 1263.5428,65.848305 0,4.658203 5.5518,0 0,2.094726 -5.5518,0 0,8.90625 q 0,2.006836 0.542,2.578125 0.5567,0.571289 2.2412,0.571289 l 2.7686,0 0,2.25586 -2.7686,0 q -3.1201,0 -4.3066,-1.157227 -1.1865,-1.171875 -1.1865,-4.248047 l 0,-8.90625 -1.9776,0 0,-2.094726 1.9776,0 0,-4.658203 2.7099,0 z"
       style="font-style:normal;font-variant:normal;font-weight:normal;font-stretch:normal;font-size:30px;font-family:'DejaVu Sans';-inkscape-font-specification:'DejaVu Sans'"
       id="path3390" />
    <path
       d="m 1272.6542,70.506508 2.6953,0 0,16.40625 -2.6953,0 0,-16.40625 z m 0,-6.386719 2.6953,0 0,3.413086 -2.6953,0 0,-3.413086 z"
       style="font-style:normal;font-variant:normal;font-weight:normal;font-stretch:normal;font-size:30px;font-family:'DejaVu Sans';-inkscape-font-specification:'DejaVu Sans'"
       id="path3392" />
    <path
       d="m 1292.7811,71.136391 0,2.519531 q -1.1426,-0.629883 -2.2998,-0.9375 -1.1426,-0.322266 -2.3144,-0.322266 -2.6221,0 -4.0723,1.669922 -1.4502,1.655274 -1.4502,4.658203 0,3.00293 1.4502,4.672852 1.4502,1.655273 4.0723,1.655273 1.1718,0 2.3144,-0.307617 1.1572,-0.322266 2.2998,-0.952148 l 0,2.490234 q -1.1279,0.527344 -2.3437,0.791016 -1.2012,0.263672 -2.5635,0.263672 -3.7061,0 -5.8887,-2.329102 -2.1826,-2.329102 -2.1826,-6.28418 0,-4.013672 2.1973,-6.313476 2.2119,-2.299805 6.0498,-2.299805 1.2451,0 2.4316,0.263672 1.1865,0.249023 2.2998,0.761719 z"
       style="font-style:normal;font-variant:normal;font-weight:normal;font-stretch:normal;font-size:30px;font-family:'DejaVu Sans';-inkscape-font-specification:'DejaVu Sans'"
       id="path3394" />
    <path
       d="m 1303.8553,72.396156 q -2.1679,0 -3.4277,1.699219 -1.2598,1.68457 -1.2598,4.628906 0,2.944336 1.2452,4.643555 1.2597,1.68457 3.4423,1.68457 2.1534,0 3.4131,-1.699218 1.2598,-1.699219 1.2598,-4.628907 0,-2.915039 -1.2598,-4.614258 -1.2597,-1.713867 -3.4131,-1.713867 z m 0,-2.285156 q 3.5157,0 5.5225,2.285156 2.0068,2.285157 2.0068,6.328125 0,4.028321 -2.0068,6.328125 -2.0068,2.285157 -5.5225,2.285157 -3.5302,0 -5.5371,-2.285157 -1.9922,-2.299804 -1.9922,-6.328125 0,-4.042968 1.9922,-6.328125 2.0069,-2.285156 5.5371,-2.285156 z"
       style="font-style:normal;font-variant:normal;font-weight:normal;font-stretch:normal;font-size:30px;font-family:'DejaVu Sans';-inkscape-font-specification:'DejaVu Sans'"
       id="path3396" />
    <path
       d="m 1315.8378,64.119789 2.6953,0 0,22.792969 -2.6953,0 0,-22.792969 z"
       style="font-style:normal;font-variant:normal;font-weight:normal;font-stretch:normal;font-size:30px;font-family:'DejaVu Sans';-inkscape-font-specification:'DejaVu Sans'"
       id="path3398" />
    <path
       d="m 1330.5155,72.396156 q -2.168,0 -3.4277,1.699219 -1.2598,1.68457 -1.2598,4.628906 0,2.944336 1.2451,4.643555 1.2598,1.68457 3.4424,1.68457 2.1533,0 3.4131,-1.699218 1.2598,-1.699219 1.2598,-4.628907 0,-2.915039 -1.2598,-4.614258 -1.2598,-1.713867 -3.4131,-1.713867 z m 0,-2.285156 q 3.5156,0 5.5225,2.285156 2.0068,2.285157 2.0068,6.328125 0,4.028321 -2.0068,6.328125 -2.0069,2.285157 -5.5225,2.285157 -3.5303,0 -5.5371,-2.285157 -1.9922,-2.299804 -1.9922,-6.328125 0,-4.042968 1.9922,-6.328125 2.0068,-2.285156 5.5371,-2.285156 z"
       style="font-style:normal;font-variant:normal;font-weight:normal;font-stretch:normal;font-size:30px;font-family:'DejaVu Sans';-inkscape-font-specification:'DejaVu Sans'"
       id="path3400" />
    <path
       d="m 1352.0048,73.026039 q -0.4541,-0.263672 -0.9961,-0.380859 -0.5274,-0.131836 -1.1719,-0.131836 -2.2852,0 -3.5156,1.49414 -1.2159,1.479493 -1.2159,4.262696 l 0,8.642578 -2.7099,0 0,-16.40625 2.7099,0 0,2.548828 q 0.8497,-1.494141 2.212,-2.211914 1.3623,-0.732422 3.3105,-0.732422 0.2783,0 0.6152,0.04394 0.337,0.0293 0.7471,0.102539 l 0.015,2.768555 z"
       style="font-style:normal;font-variant:normal;font-weight:normal;font-stretch:normal;font-size:30px;font-family:'DejaVu Sans';-inkscape-font-specification:'DejaVu Sans'"
       id="path3402" />
    <path
       d="m 1368.2499,78.035805 0,1.318359 -12.3926,0 q 0.1758,2.783203 1.6699,4.248047 1.5088,1.450195 4.1895,1.450195 1.5527,0 3.0029,-0.380859 1.4648,-0.380859 2.9004,-1.142578 l 0,2.548828 q -1.4502,0.615234 -2.9736,0.9375 -1.5235,0.322266 -3.0909,0.322266 -3.9257,0 -6.2255,-2.285157 -2.2852,-2.285156 -2.2852,-6.18164 0,-4.028321 2.168,-6.386719 2.1826,-2.373047 5.874,-2.373047 3.3105,0 5.2295,2.138672 1.9336,2.124023 1.9336,5.786133 z m -2.6953,-0.791016 q -0.029,-2.211914 -1.2452,-3.530273 -1.2011,-1.31836 -3.1933,-1.31836 -2.2559,0 -3.6182,1.274414 -1.3476,1.274414 -1.5527,3.588868 l 9.6094,-0.01465 z"
       style="font-style:normal;font-variant:normal;font-weight:normal;font-stretch:normal;font-size:30px;font-family:'DejaVu Sans';-inkscape-font-specification:'DejaVu Sans'"
       id="path3404" />
    <path
       d="m 1383.4696,72.996742 0,-8.876953 2.6953,0 0,22.792969 -2.6953,0 0,-2.460938 q -0.8496,1.464844 -2.1533,2.182618 -1.2891,0.703125 -3.1055,0.703125 -2.9736,0 -4.8486,-2.373047 -1.8604,-2.373047 -1.8604,-6.240235 0,-3.867187 1.8604,-6.240234 1.875,-2.373047 4.8486,-2.373047 1.8164,0 3.1055,0.717773 1.3037,0.703125 2.1533,2.167969 z m -9.1846,5.727539 q 0,2.973633 1.2159,4.672852 1.2304,1.68457 3.3691,1.68457 2.1387,0 3.3691,-1.68457 1.2305,-1.699219 1.2305,-4.672852 0,-2.973633 -1.2305,-4.658203 -1.2304,-1.699219 -3.3691,-1.699219 -2.1387,0 -3.3691,1.699219 -1.2159,1.68457 -1.2159,4.658203 z"
       style="font-style:normal;font-variant:normal;font-weight:normal;font-stretch:normal;font-size:30px;font-family:'DejaVu Sans';-inkscape-font-specification:'DejaVu Sans'"
       id="path3406" />
    <path
       d="m 1407.0243,64.119789 7.5,0 0,22.792969 -2.71,0 0,-20.551758 -4.8193,0 q -1.4502,0 -2.0215,0.585938 -0.5566,0.585937 -0.5566,2.109375 l 0,1.450195 4.4384,0 0,2.094726 -4.4384,0 0,14.311524 -2.71,0 0,-14.311524 -2.5781,0 0,-2.094726 2.5781,0 0,-1.142578 q 0,-2.739258 1.2744,-3.984375 1.2744,-1.259766 4.043,-1.259766 z"
       style="font-style:normal;font-variant:normal;font-weight:normal;font-stretch:normal;font-size:30px;font-family:'DejaVu Sans';-inkscape-font-specification:'DejaVu Sans'"
       id="path3408" />
    <path
       d="m 1426.5507,72.396156 q -2.168,0 -3.4278,1.699219 -1.2597,1.68457 -1.2597,4.628906 0,2.944336 1.2451,4.643555 1.2597,1.68457 3.4424,1.68457 2.1533,0 3.413,-1.699218 1.2598,-1.699219 1.2598,-4.628907 0,-2.915039 -1.2598,-4.614258 -1.2597,-1.713867 -3.413,-1.713867 z m 0,-2.285156 q 3.5156,0 5.5224,2.285156 2.0069,2.285157 2.0069,6.328125 0,4.028321 -2.0069,6.328125 -2.0068,2.285157 -5.5224,2.285157 -3.5303,0 -5.5372,-2.285157 -1.9921,-2.299804 -1.9921,-6.328125 0,-4.042968 1.9921,-6.328125 2.0069,-2.285156 5.5372,-2.285156 z"
       style="font-style:normal;font-variant:normal;font-weight:normal;font-stretch:normal;font-size:30px;font-family:'DejaVu Sans';-inkscape-font-specification:'DejaVu Sans'"
       id="path3410" />
    <path
       d="m 1436.9657,70.506508 2.6953,0 3.3692,12.802734 3.3544,-12.802734 3.1788,0 3.3691,12.802734 3.3545,-12.802734 2.6953,0 -4.292,16.40625 -3.1787,0 -3.5303,-13.447266 -3.5449,13.447266 -3.1787,0 -4.292,-16.40625 z"
       style="font-style:normal;font-variant:normal;font-weight:normal;font-stretch:normal;font-size:30px;font-family:'DejaVu Sans';-inkscape-font-specification:'DejaVu Sans'"
       id="path3412" />
    <path
       d="m 1477.1171,78.035805 0,1.318359 -12.3926,0 q 0.1758,2.783203 1.6699,4.248047 1.5088,1.450195 4.1895,1.450195 1.5527,0 3.0029,-0.380859 1.4648,-0.380859 2.9004,-1.142578 l 0,2.548828 q -1.4502,0.615234 -2.9737,0.9375 -1.5234,0.322266 -3.0908,0.322266 -3.9258,0 -6.2256,-2.285157 -2.2851,-2.285156 -2.2851,-6.18164 0,-4.028321 2.168,-6.386719 2.1826,-2.373047 5.874,-2.373047 3.3105,0 5.2295,2.138672 1.9336,2.124023 1.9336,5.786133 z m -2.6953,-0.791016 q -0.029,-2.211914 -1.2452,-3.530273 -1.2011,-1.31836 -3.1933,-1.31836 -2.2559,0 -3.6182,1.274414 -1.3476,1.274414 -1.5527,3.588868 l 9.6094,-0.01465 z"
       style="font-style:normal;font-variant:normal;font-weight:normal;font-stretch:normal;font-size:30px;font-family:'DejaVu Sans';-inkscape-font-specification:'DejaVu Sans'"
       id="path3414" />
    <path
       d="m 1491.0477,73.026039 q -0.4541,-0.263672 -0.9961,-0.380859 -0.5273,-0.131836 -1.1718,-0.131836 -2.2852,0 -3.5157,1.49414 -1.2158,1.479493 -1.2158,4.262696 l 0,8.642578 -2.7099,0 0,-16.40625 2.7099,0 0,2.548828 q 0.8496,-1.494141 2.2119,-2.211914 1.3623,-0.732422 3.3106,-0.732422 0.2783,0 0.6152,0.04394 0.3369,0.0293 0.7471,0.102539 l 0.015,2.768555 z"
       style="font-style:normal;font-variant:normal;font-weight:normal;font-stretch:normal;font-size:30px;font-family:'DejaVu Sans';-inkscape-font-specification:'DejaVu Sans'"
       id="path3416" />
  </g>
</svg>
